HIERARCHY
ROOT root
{
	OFFSET 0.000000 0.000642 0.045086
	CHANNELS 6 Xposition Yposition Zposition Xrotation Yrotation Zrotation
	JOINT pelvis
	{
		OFFSET -0.003967 0.043983 0.922426
		CHANNELS 6 Xposition Yposition Zposition Xrotation Yrotation Zrotation
		JOINT thigh_R
		{
			OFFSET -0.108457 -0.044120 -0.114620
			CHANNELS 6 Xposition Yposition Zposition Xrotation Yrotation Zrotation
			JOINT calf_R
			{
				OFFSET -0.031978 -0.023263 -0.393771
				CHANNELS 3 Xrotation Yrotation Zrotation
				JOINT foot_R
				{
					OFFSET -0.052496 0.000902 -0.370102
					CHANNELS 3 Xrotation Yrotation Zrotation
					JOINT toes_R
					{
						OFFSET -0.009320 -0.126011 -0.069821
						CHANNELS 6 Xposition Yposition Zposition Xrotation Yrotation Zrotation
						End Site
						{
							OFFSET -0.004473 -0.046724 -0.003049
						}
					}
				}
				JOINT calf_twist_R
				{
					OFFSET 0.000000 0.000000 0.000000
					CHANNELS 6 Xposition Yposition Zposition Xrotation Yrotation Zrotation
					End Site
					{
						OFFSET -0.038816 0.005263 -0.254563
					}
				}
			}
			JOINT thigh_twist_R
			{
				OFFSET 0.000000 -0.000000 0.000000
				CHANNELS 6 Xposition Yposition Zposition Xrotation Yrotation Zrotation
				End Site
				{
					OFFSET -0.013447 -0.026672 -0.173442
				}
			}
		}
		JOINT thigh_L
		{
			OFFSET 0.116390 -0.044120 -0.114620
			CHANNELS 6 Xposition Yposition Zposition Xrotation Yrotation Zrotation
			JOINT calf_L
			{
				OFFSET 0.031978 -0.023263 -0.393771
				CHANNELS 3 Xrotation Yrotation Zrotation
				JOINT foot_L
				{
					OFFSET 0.052496 0.000902 -0.370102
					CHANNELS 3 Xrotation Yrotation Zrotation
					JOINT toes_L
					{
						OFFSET 0.009320 -0.126011 -0.069821
						CHANNELS 3 Xrotation Yrotation Zrotation
						End Site
						{
							OFFSET 0.004473 -0.046724 -0.003049
						}
					}
				}
				JOINT calf_twist_L
				{
					OFFSET 0.000000 0.000000 0.000000
					CHANNELS 6 Xposition Yposition Zposition Xrotation Yrotation Zrotation
					End Site
					{
						OFFSET 0.038816 0.005263 -0.254563
					}
				}
			}
			JOINT thigh_twist_L
			{
				OFFSET 0.000000 0.000000 0.000000
				CHANNELS 6 Xposition Yposition Zposition Xrotation Yrotation Zrotation
				End Site
				{
					OFFSET 0.013447 -0.026672 -0.173442
				}
			}
		}
		JOINT spine01
		{
			OFFSET -0.000108 -0.000434 0.006186
			CHANNELS 3 Xrotation Yrotation Zrotation
			JOINT spine02
			{
				OFFSET 0.004075 -0.053178 0.066675
				CHANNELS 3 Xrotation Yrotation Zrotation
				JOINT spine03
				{
					OFFSET 0.000000 0.008649 0.117635
					CHANNELS 3 Xrotation Yrotation Zrotation
					JOINT clavicle_L
					{
						OFFSET 0.031960 -0.002455 0.159580
						CHANNELS 6 Xposition Yposition Zposition Xrotation Yrotation Zrotation
						JOINT upperarm_L
						{
							OFFSET 0.106613 -0.013377 -0.022582
							CHANNELS 6 Xposition Yposition Zposition Xrotation Yrotation Zrotation
							JOINT lowerarm_L
							{
								OFFSET 0.233664 0.021966 -0.134813
								CHANNELS 3 Xrotation Yrotation Zrotation
								JOINT hand_L
								{
									OFFSET 0.202817 -0.038212 -0.103702
									CHANNELS 3 Xrotation Yrotation Zrotation
									JOINT thumb01_L
									{
										OFFSET 0.008269 -0.017364 -0.009129
										CHANNELS 6 Xposition Yposition Zposition Xrotation Yrotation Zrotation
										JOINT thumb02_L
										{
											OFFSET 0.007103 -0.025549 -0.027526
											CHANNELS 3 Xrotation Yrotation Zrotation
											JOINT thumb03_L
											{
												OFFSET 0.011035 -0.026258 -0.014218
												CHANNELS 3 Xrotation Yrotation Zrotation
												End Site
												{
													OFFSET 0.008927 -0.014147 -0.017737
												}
											}
										}
									}
									JOINT index00_L
									{
										OFFSET 0.015790 -0.019369 -0.010869
										CHANNELS 6 Xposition Yposition Zposition Xrotation Yrotation Zrotation
										JOINT index01_L
										{
											OFFSET 0.047864 -0.007217 -0.023292
											CHANNELS 3 Xrotation Yrotation Zrotation
											JOINT index02_L
											{
												OFFSET 0.026189 -0.000355 -0.020650
												CHANNELS 3 Xrotation Yrotation Zrotation
												JOINT index03_L
												{
													OFFSET 0.017813 0.001193 -0.013583
													CHANNELS 3 Xrotation Yrotation Zrotation
													End Site
													{
														OFFSET 0.013377 0.001373 -0.016250
													}
												}
											}
										}
									}
									JOINT middle00_L
									{
										OFFSET 0.016276 -0.006169 -0.012863
										CHANNELS 6 Xposition Yposition Zposition Xrotation Yrotation Zrotation
										JOINT middle01_L
										{
											OFFSET 0.049067 -0.003947 -0.017410
											CHANNELS 3 Xrotation Yrotation Zrotation
											JOINT middle02_L
											{
												OFFSET 0.029087 0.000312 -0.026941
												CHANNELS 3 Xrotation Yrotation Zrotation
												JOINT middle03_L
												{
													OFFSET 0.019190 0.000267 -0.015543
													CHANNELS 3 Xrotation Yrotation Zrotation
													End Site
													{
														OFFSET 0.014683 0.000017 -0.017510
													}
												}
											}
										}
									}
									JOINT ring00_L
									{
										OFFSET 0.017106 0.003470 -0.011997
										CHANNELS 6 Xposition Yposition Zposition Xrotation Yrotation Zrotation
										JOINT ring01_L
										{
											OFFSET 0.044984 0.002116 -0.016733
											CHANNELS 3 Xrotation Yrotation Zrotation
											JOINT ring02_L
											{
												OFFSET 0.028856 0.000400 -0.026983
												CHANNELS 3 Xrotation Yrotation Zrotation
												JOINT ring03_L
												{
													OFFSET 0.017620 0.000363 -0.013833
													CHANNELS 3 Xrotation Yrotation Zrotation
													End Site
													{
														OFFSET 0.015507 -0.000807 -0.015547
													}
												}
											}
										}
									}
									JOINT pinky00_L
									{
										OFFSET 0.014366 0.020048 -0.015014
										CHANNELS 6 Xposition Yposition Zposition Xrotation Yrotation Zrotation
										JOINT pinky01_L
										{
											OFFSET 0.041296 0.001442 -0.016227
											CHANNELS 3 Xrotation Yrotation Zrotation
											JOINT pinky02_L
											{
												OFFSET 0.024951 -0.000301 -0.020450
												CHANNELS 3 Xrotation Yrotation Zrotation
												JOINT pinky03_L
												{
													OFFSET 0.013007 -0.001157 -0.010280
													CHANNELS 3 Xrotation Yrotation Zrotation
													End Site
													{
														OFFSET 0.009963 -0.001160 -0.011403
													}
												}
											}
										}
									}
								}
								JOINT lowerarm_twist_L
								{
									OFFSET 0.000000 -0.000000 0.000000
									CHANNELS 6 Xposition Yposition Zposition Xrotation Yrotation Zrotation
									End Site
									{
										OFFSET 0.113147 -0.023106 -0.058600
									}
								}
							}
							JOINT upperarm_twist_L
							{
								OFFSET 0.000000 0.000000 0.000000
								CHANNELS 6 Xposition Yposition Zposition Xrotation Yrotation Zrotation
								End Site
								{
									OFFSET 0.131225 0.003005 -0.082365
								}
							}
						}
					}
					JOINT clavicle_R
					{
						OFFSET -0.031960 -0.002455 0.159580
						CHANNELS 6 Xposition Yposition Zposition Xrotation Yrotation Zrotation
						JOINT upperarm_R
						{
							OFFSET -0.106613 -0.013377 -0.022582
							CHANNELS 6 Xposition Yposition Zposition Xrotation Yrotation Zrotation
							JOINT lowerarm_R
							{
								OFFSET -0.233664 0.021966 -0.134813
								CHANNELS 3 Xrotation Yrotation Zrotation
								JOINT hand_R
								{
									OFFSET -0.202817 -0.038212 -0.103702
									CHANNELS 3 Xrotation Yrotation Zrotation
									JOINT thumb01_R
									{
										OFFSET -0.008269 -0.017364 -0.009129
										CHANNELS 6 Xposition Yposition Zposition Xrotation Yrotation Zrotation
										JOINT thumb02_R
										{
											OFFSET -0.007103 -0.025549 -0.027526
											CHANNELS 3 Xrotation Yrotation Zrotation
											JOINT thumb03_R
											{
												OFFSET -0.011035 -0.026258 -0.014218
												CHANNELS 3 Xrotation Yrotation Zrotation
												End Site
												{
													OFFSET -0.008927 -0.014147 -0.017737
												}
											}
										}
									}
									JOINT index00_R
									{
										OFFSET -0.015790 -0.019369 -0.010869
										CHANNELS 6 Xposition Yposition Zposition Xrotation Yrotation Zrotation
										JOINT index01_R
										{
											OFFSET -0.047864 -0.007217 -0.023292
											CHANNELS 3 Xrotation Yrotation Zrotation
											JOINT index02_R
											{
												OFFSET -0.026189 -0.000355 -0.020650
												CHANNELS 3 Xrotation Yrotation Zrotation
												JOINT index03_R
												{
													OFFSET -0.017813 0.001193 -0.013583
													CHANNELS 3 Xrotation Yrotation Zrotation
													End Site
													{
														OFFSET -0.013377 0.001373 -0.016250
													}
												}
											}
										}
									}
									JOINT middle00_R
									{
										OFFSET -0.016276 -0.006169 -0.012863
										CHANNELS 6 Xposition Yposition Zposition Xrotation Yrotation Zrotation
										JOINT middle01_R
										{
											OFFSET -0.049067 -0.003947 -0.017410
											CHANNELS 3 Xrotation Yrotation Zrotation
											JOINT middle02_R
											{
												OFFSET -0.029087 0.000312 -0.026941
												CHANNELS 3 Xrotation Yrotation Zrotation
												JOINT middle03_R
												{
													OFFSET -0.019190 0.000267 -0.015543
													CHANNELS 3 Xrotation Yrotation Zrotation
													End Site
													{
														OFFSET -0.014683 0.000017 -0.017510
													}
												}
											}
										}
									}
									JOINT ring00_R
									{
										OFFSET -0.017106 0.003470 -0.011997
										CHANNELS 6 Xposition Yposition Zposition Xrotation Yrotation Zrotation
										JOINT ring01_R
										{
											OFFSET -0.044984 0.002116 -0.016733
											CHANNELS 3 Xrotation Yrotation Zrotation
											JOINT ring02_R
											{
												OFFSET -0.028856 0.000400 -0.026983
												CHANNELS 3 Xrotation Yrotation Zrotation
												JOINT ring03_R
												{
													OFFSET -0.017620 0.000363 -0.013833
													CHANNELS 3 Xrotation Yrotation Zrotation
													End Site
													{
														OFFSET -0.015507 -0.000807 -0.015547
													}
												}
											}
										}
									}
									JOINT pinky00_R
									{
										OFFSET -0.014366 0.020048 -0.015014
										CHANNELS 6 Xposition Yposition Zposition Xrotation Yrotation Zrotation
										JOINT pinky01_R
										{
											OFFSET -0.041296 0.001442 -0.016227
											CHANNELS 3 Xrotation Yrotation Zrotation
											JOINT pinky02_R
											{
												OFFSET -0.024951 -0.000301 -0.020450
												CHANNELS 3 Xrotation Yrotation Zrotation
												JOINT pinky03_R
												{
													OFFSET -0.013007 -0.001157 -0.010280
													CHANNELS 3 Xrotation Yrotation Zrotation
													End Site
													{
														OFFSET -0.009963 -0.001160 -0.011403
													}
												}
											}
										}
									}
								}
								JOINT lowerarm_twist_R
								{
									OFFSET 0.000000 0.000000 0.000000
									CHANNELS 6 Xposition Yposition Zposition Xrotation Yrotation Zrotation
									End Site
									{
										OFFSET -0.113147 -0.023106 -0.058600
									}
								}
							}
							JOINT upperarm_twist_R
							{
								OFFSET 0.000000 0.000000 0.000000
								CHANNELS 6 Xposition Yposition Zposition Xrotation Yrotation Zrotation
								End Site
								{
									OFFSET -0.131225 0.003005 -0.082365
								}
							}
						}
					}
					JOINT neck
					{
						OFFSET -0.000000 -0.002726 0.194733
						CHANNELS 6 Xposition Yposition Zposition Xrotation Yrotation Zrotation
						JOINT head
						{
							OFFSET 0.000000 -0.047407 0.104388
							CHANNELS 3 Xrotation Yrotation Zrotation
							End Site
							{
								OFFSET -0.000000 -0.000839 0.155358
							}
						}
					}
					JOINT breast_L
					{
						OFFSET 0.075423 -0.033073 0.045626
						CHANNELS 6 Xposition Yposition Zposition Xrotation Yrotation Zrotation
						End Site
						{
							OFFSET 0.027052 -0.131754 -0.030994
						}
					}
					JOINT breast_R
					{
						OFFSET -0.075423 -0.033073 0.045626
						CHANNELS 6 Xposition Yposition Zposition Xrotation Yrotation Zrotation
						End Site
						{
							OFFSET -0.027052 -0.131754 -0.030994
						}
					}
				}
			}
		}
	}
}
MOTION
Frames: 4
Frame Time: 0.041667
0.000000 0.000642 0.045086 0.000000 0.000000 0.000000 -0.064070 -1.213494 0.975715 0.000186 -0.000006 -0.000003 -0.108457 -0.044120 -0.114619 7.376806 -6.657132 -0.211938 -3.512400 -3.438008 0.050844 -17.885120 -9.709651 -2.153322 -0.009320 -0.126011 -0.069821 14.292944 -1.405663 5.202640 -0.000000 -0.000000 0.000000 0.000000 -0.000001 -0.000000 -0.000000 -0.000000 0.000000 0.000003 0.000003 0.000000 0.116390 -0.044120 -0.114620 7.356110 4.662847 0.326020 -3.513336 3.437517 -0.044104 -18.546520 11.220241 3.584550 14.701185 1.537653 -5.455423 0.000000 0.000000 -0.000000 0.000000 -0.000001 0.000000 -0.000000 -0.000000 -0.000000 0.000001 -0.000001 0.000000 -39.941765 -3.705681 -0.103268 -0.000004 -0.000000 -0.000000 -0.000001 0.000000 0.000000 0.031960 -0.002455 0.159581 0.000001 -0.000008 -0.000002 0.106614 -0.013377 -0.022582 37.529485 -19.945334 -6.646890 6.255557 3.587636 12.362537 -2.466926 -5.718999 -4.549970 0.008269 -0.017364 -0.009129 0.000927 -0.000067 -0.000377 -0.000303 -0.000119 0.000231 -25.239176 -6.460825 8.064118 0.015791 -0.019370 -0.010870 -0.000006 -0.000018 0.000002 -0.000179 0.014396 -0.000342 -4.453957 -4.194968 -6.536417 -0.104627 -13.138103 -0.978905 0.016274 -0.006169 -0.012862 0.000003 0.000015 -0.000000 -0.000648 0.015499 -0.000431 -0.000113 0.033345 0.000383 0.000283 0.071439 0.000419 0.017107 0.003471 -0.011996 -0.000006 -0.000016 -0.000001 -0.000006 0.017523 0.000235 -0.000666 0.031911 0.000153 0.000755 0.091893 -0.004034 0.014367 0.020048 -0.015014 -0.000001 0.000002 0.000000 0.000248 0.017955 -0.000007 0.001923 0.039135 -0.002048 0.005971 0.104262 -0.005367 -0.000000 -0.000000 -0.000000 -0.000019 0.000673 0.000309 0.000001 0.000000 0.000000 -0.000006 0.001367 -0.000066 -0.031960 -0.002455 0.159580 -0.000001 0.000013 -0.000006 -0.106614 -0.013377 -0.022581 38.923991 23.860629 2.197406 6.279338 -3.589075 -12.349089 -2.505900 5.711802 4.528592 -0.008269 -0.017364 -0.009130 0.001372 -0.000752 0.000194 -0.000074 -0.000410 0.000090 -24.650583 6.846839 -7.356085 -0.015791 -0.019369 -0.010870 -0.000004 0.000015 0.000001 -0.000144 -0.013005 0.000295 -4.481147 4.203957 6.518222 -0.154073 13.175116 0.929257 -0.016274 -0.006169 -0.012862 -0.000000 0.000008 -0.000001 -0.000567 -0.013608 0.000378 -0.001184 -0.011795 0.000789 0.000542 -0.020171 -0.000669 -0.017107 0.003471 -0.011996 -0.000000 0.000003 -0.000000 -0.000716 -0.016767 0.000435 -0.000647 -0.015893 0.000171 -0.000128 -0.042072 0.002319 -0.014367 0.020048 -0.015014 0.000001 -0.000000 0.000000 -0.000991 -0.017892 0.001032 0.000526 -0.022095 0.001600 0.000327 -0.056883 0.006361 -0.000001 0.000000 -0.000000 0.000001 -0.000004 0.000006 0.000001 -0.000000 0.000000 -0.000001 -0.000072 -0.000001 0.000000 -0.002726 0.194733 20.551542 5.649404 -0.168348 10.997259 0.065134 0.225614 0.075423 -0.033073 0.045626 0.000426 0.000108 -0.000170 -0.075423 -0.033073 0.045627 0.000453 -0.000111 0.000180 
0.000000 0.000642 0.045086 0.000000 0.000000 0.000000 -0.064070 -1.213494 0.975715 0.000186 -0.000006 -0.000003 -0.108457 -0.044120 -0.114619 7.376806 -6.657132 -0.211938 -3.512400 -3.438008 0.050844 -17.885120 -9.709651 -2.153322 -0.009320 -0.126011 -0.069821 14.292944 -1.405663 5.202640 -0.000000 -0.000000 0.000000 0.000000 -0.000001 -0.000000 -0.000000 -0.000000 0.000000 0.000003 0.000003 0.000000 0.116390 -0.044120 -0.114620 7.356110 4.662847 0.326020 -3.513336 3.437517 -0.044104 -18.546520 11.220241 3.584550 14.701185 1.537653 -5.455423 0.000000 0.000000 -0.000000 0.000000 -0.000001 0.000000 -0.000000 -0.000000 -0.000000 0.000001 -0.000001 0.000000 -39.941765 -3.705681 -0.103268 -0.000004 -0.000000 -0.000000 -0.000001 0.000000 0.000000 0.031960 -0.002455 0.159581 0.000001 -0.000008 -0.000002 0.106614 -0.013377 -0.022582 37.529485 -19.945334 -6.646890 6.255557 3.587636 12.362537 -2.466926 -5.718999 -4.549970 0.008269 -0.017364 -0.009129 0.000927 -0.000067 -0.000377 -0.000303 -0.000119 0.000231 -25.239176 -6.460825 8.064118 0.015791 -0.019370 -0.010870 -0.000006 -0.000018 0.000002 -0.000179 0.014396 -0.000342 -4.453957 -4.194968 -6.536417 -0.104627 -13.138103 -0.978905 0.016274 -0.006169 -0.012862 0.000003 0.000015 -0.000000 -0.000648 0.015499 -0.000431 -0.000113 0.033345 0.000383 0.000283 0.071439 0.000419 0.017107 0.003471 -0.011996 -0.000006 -0.000016 -0.000001 -0.000006 0.017523 0.000235 -0.000666 0.031911 0.000153 0.000755 0.091893 -0.004034 0.014367 0.020048 -0.015014 -0.000001 0.000002 0.000000 0.000248 0.017955 -0.000007 0.001923 0.039135 -0.002048 0.005971 0.104262 -0.005367 -0.000000 -0.000000 -0.000000 -0.000019 0.000673 0.000309 0.000001 0.000000 0.000000 -0.000006 0.001367 -0.000066 -0.031960 -0.002455 0.159580 -0.000001 0.000013 -0.000006 -0.106614 -0.013377 -0.022581 38.923991 23.860629 2.197406 6.279338 -3.589075 -12.349089 -2.505900 5.711802 4.528592 -0.008269 -0.017364 -0.009130 0.001372 -0.000752 0.000194 -0.000074 -0.000410 0.000090 -24.650583 6.846839 -7.356085 -0.015791 -0.019369 -0.010870 -0.000004 0.000015 0.000001 -0.000144 -0.013005 0.000295 -4.481147 4.203957 6.518222 -0.154073 13.175116 0.929257 -0.016274 -0.006169 -0.012862 -0.000000 0.000008 -0.000001 -0.000567 -0.013608 0.000378 -0.001184 -0.011795 0.000789 0.000542 -0.020171 -0.000669 -0.017107 0.003471 -0.011996 -0.000000 0.000003 -0.000000 -0.000716 -0.016767 0.000435 -0.000647 -0.015893 0.000171 -0.000128 -0.042072 0.002319 -0.014367 0.020048 -0.015014 0.000001 -0.000000 0.000000 -0.000991 -0.017892 0.001032 0.000526 -0.022095 0.001600 0.000327 -0.056883 0.006361 -0.000001 0.000000 -0.000000 0.000001 -0.000004 0.000006 0.000001 -0.000000 0.000000 -0.000001 -0.000072 -0.000001 0.000000 -0.002726 0.194733 20.551542 5.649404 -0.168348 10.997259 0.065134 0.225614 0.075423 -0.033073 0.045626 0.000426 0.000108 -0.000170 -0.075423 -0.033073 0.045627 0.000453 -0.000111 0.000180 
0.000000 0.000642 0.045086 0.000000 0.000000 0.000000 -0.085948 -1.214892 0.973892 5.682614 0.806532 -101.121627 -0.108456 -0.044119 -0.114619 -20.870799 -3.761008 -4.228539 46.484960 -4.425003 -3.848093 -26.710239 -6.728175 -8.436627 -0.009320 -0.126011 -0.069821 22.403290 -1.445451 2.552961 -0.000000 -0.000000 0.000000 -0.000001 -0.000004 -0.000000 -0.000000 -0.000000 0.000000 0.000004 0.000004 -0.000001 0.116390 -0.044120 -0.114620 -0.877111 2.689690 10.670075 20.067330 3.693789 1.854498 -32.283104 14.775489 -2.340756 26.408932 1.677812 -1.197583 0.000000 0.000000 -0.000000 -0.000002 -0.000001 -0.000000 -0.000000 0.000000 -0.000000 0.000001 -0.000001 0.000000 -30.551641 -1.560705 3.954457 4.558524 1.720416 1.960146 -0.458201 -0.490468 0.940863 0.031960 -0.002455 0.159581 0.000002 -0.000010 -0.000003 0.106614 -0.013377 -0.022582 58.536463 39.346442 -30.714408 -16.154249 -13.562666 -24.018451 -9.713320 -4.706449 -0.515088 0.008269 -0.017364 -0.009129 0.000927 -0.000073 -0.000377 -0.000305 -0.000119 0.000227 -6.561215 -7.741597 26.494790 0.015791 -0.019370 -0.010870 -0.000007 -0.000025 0.000003 -0.000180 0.014393 -0.000342 -12.452189 -22.637836 -14.167166 -0.083567 -6.034549 -0.426103 0.016274 -0.006169 -0.012862 0.000003 0.000007 0.000003 -0.000648 0.015501 -0.000432 -0.000114 0.033343 0.000384 0.000280 0.071434 0.000420 0.017107 0.003471 -0.011996 -0.000005 -0.000019 0.000001 -0.000003 0.017521 0.000233 -0.000664 0.031913 0.000154 0.000755 0.091893 -0.004034 0.014367 0.020048 -0.015014 -0.000003 0.000001 0.000003 0.000249 0.017953 -0.000007 0.001926 0.039133 -0.002047 0.005972 0.104262 -0.005368 -0.000000 -0.000000 -0.000000 -0.000021 0.000675 0.000307 0.000000 0.000000 0.000000 -0.000002 0.001357 -0.000066 -0.031960 -0.002455 0.159580 -0.000002 0.000012 -0.000007 -0.106614 -0.013377 -0.022582 68.019723 -51.029586 37.798045 -16.176915 13.394407 24.140819 -15.672736 4.261612 -2.854255 -0.008269 -0.017364 -0.009130 0.001375 -0.000751 0.000194 -0.000075 -0.000406 0.000095 13.042492 4.714417 -49.392318 -0.015791 -0.019369 -0.010869 -0.000005 0.000015 0.000001 -0.000146 -0.013001 0.000296 12.700779 20.524872 -11.865324 -0.103757 6.073612 0.345591 -0.016274 -0.006169 -0.012862 0.000000 0.000004 0.000000 -0.000565 -0.013606 0.000380 -0.001183 -0.011797 0.000788 0.000539 -0.020172 -0.000670 -0.017107 0.003471 -0.011996 -0.000001 0.000005 0.000002 -0.000719 -0.016772 0.000434 -0.000647 -0.015891 0.000169 -0.000130 -0.042077 0.002318 -0.014367 0.020048 -0.015015 -0.000001 -0.000004 0.000002 -0.000990 -0.017892 0.001032 0.000525 -0.022090 0.001601 0.000327 -0.056883 0.006361 -0.000001 0.000000 -0.000000 0.000002 -0.000005 0.000005 0.000001 -0.000000 0.000000 -0.000000 -0.000074 0.000002 -0.000000 -0.002726 0.194733 39.693463 13.699501 -12.782054 6.003022 -1.738826 -4.718588 0.075423 -0.033073 0.045626 0.000421 0.000106 -0.000168 -0.075423 -0.033073 0.045627 0.000441 -0.000113 0.000180 
0.000000 0.000642 0.045086 0.000000 0.000000 0.000000 -0.115136 -1.210291 0.971846 5.552973 0.126595 -101.572037 -0.108457 -0.044119 -0.114619 -23.067663 -4.178458 -5.990806 37.167782 -3.987128 -3.211169 -26.542049 -5.431466 -11.332030 -0.009320 -0.126011 -0.069821 24.625122 -1.521677 1.830000 -0.000000 -0.000000 -0.000000 -0.000001 -0.000001 0.000001 -0.000000 -0.000000 0.000000 0.000003 0.000005 -0.000002 0.116390 -0.044120 -0.114620 0.676224 3.055152 10.342598 19.297091 3.673566 1.794929 -34.165016 14.246475 -1.310057 23.032359 1.548089 -2.421872 0.000000 0.000000 -0.000000 -0.000001 -0.000000 0.000000 -0.000000 0.000000 -0.000000 0.000001 -0.000001 -0.000000 -30.541847 -1.546702 4.054481 4.515116 1.741714 2.050045 -0.508660 -0.502798 0.987209 0.031960 -0.002455 0.159581 0.000005 -0.000011 -0.000004 0.106614 -0.013377 -0.022582 59.329810 37.894252 -32.516249 -18.258233 -14.201503 -27.052962 -9.940808 -4.683034 -0.387125 0.008269 -0.017364 -0.009130 0.000925 -0.000078 -0.000379 -0.000305 -0.000122 0.000228 -7.001515 -7.883907 26.073646 0.015791 -0.019370 -0.010870 -0.000005 -0.000023 -0.000000 -0.000181 0.014391 -0.000340 -12.988488 -22.755624 -14.682011 -0.083573 -6.034551 -0.426102 0.016274 -0.006169 -0.012863 0.000007 0.000007 0.000002 -0.000649 0.015496 -0.000431 -0.000112 0.033340 0.000383 0.000282 0.071434 0.000414 0.017107 0.003471 -0.011997 -0.000004 -0.000016 0.000001 -0.000005 0.017520 0.000236 -0.000668 0.031913 0.000156 0.000757 0.091893 -0.004036 0.014367 0.020048 -0.015014 -0.000002 0.000003 -0.000003 0.000246 0.017953 -0.000006 0.001920 0.039136 -0.002049 0.005969 0.104256 -0.005366 -0.000000 -0.000000 -0.000000 -0.000017 0.000677 0.000309 0.000000 0.000000 0.000000 -0.000006 0.001360 -0.000067 -0.031959 -0.002455 0.159580 0.000001 0.000012 -0.000007 -0.106614 -0.013377 -0.022582 68.513327 -51.760936 37.703020 -15.775690 13.261567 23.557929 -15.498480 4.259791 -2.746755 -0.008269 -0.017364 -0.009130 0.001378 -0.000750 0.000195 -0.000076 -0.000410 0.000096 13.029049 5.085006 -49.421698 -0.015791 -0.019370 -0.010870 -0.000000 0.000017 -0.000000 -0.000144 -0.013007 0.000297 12.744786 20.904241 -11.821457 -0.103758 6.073612 0.345591 -0.016274 -0.006169 -0.012863 0.000001 0.000002 -0.000001 -0.000568 -0.013609 0.000378 -0.001186 -0.011802 0.000791 0.000542 -0.020172 -0.000670 -0.017107 0.003471 -0.011997 0.000002 0.000007 0.000000 -0.000717 -0.016768 0.000436 -0.000647 -0.015890 0.000168 -0.000129 -0.042076 0.002317 -0.014367 0.020048 -0.015014 0.000002 -0.000002 0.000001 -0.000987 -0.017895 0.001031 0.000527 -0.022087 0.001599 0.000326 -0.056886 0.006361 -0.000001 -0.000000 -0.000000 0.000002 -0.000007 0.000006 0.000001 -0.000000 0.000001 0.000001 -0.000072 -0.000001 -0.000000 -0.002727 0.194733 39.596482 13.825355 -13.077145 6.036877 -1.852878 -4.818794 0.075423 -0.033073 0.045626 0.000426 0.000107 -0.000168 -0.075423 -0.033073 0.045627 0.000444 -0.000112 0.000180 
